<svg width="1706" height="1847" viewBox="0 0 1706 1847" fill="none" xmlns="http://www.w3.org/2000/svg">
<mask id="path-1-outside-1" maskUnits="userSpaceOnUse" x="0" y="-0.565796" width="1706" height="1847" fill="black">
<rect fill="white" y="-0.565796" width="1706" height="1847"/>
<path d="M169.003 12.034C164.103 13.034 158.003 14.634 155.503 15.334C153.003 16.134 148.303 17.334 145.003 18.034C141.703 18.634 137.203 20.034 135.003 21.134C132.903 22.234 128.603 24.034 125.603 25.034C122.603 26.134 118.103 28.234 115.603 29.834C113.103 31.434 109.203 33.234 107.003 33.934C104.803 34.634 102.103 35.934 101.003 36.934C99.9031 37.934 97.2031 39.634 95.0031 40.734C92.8031 41.834 90.1031 43.734 89.0031 44.934C87.9031 46.134 85.0031 48.234 82.5031 49.534C80.0031 50.834 75.3031 54.434 72.0031 57.634C68.7031 60.834 64.9031 64.234 63.5031 65.134C62.2031 66.134 59.9031 68.434 58.5031 70.334C53.6031 77.134 47.2031 85.234 45.4031 87.034C44.4031 88.034 42.9031 90.334 41.9031 92.134C41.0031 93.934 39.3031 96.534 38.0031 97.934C36.8031 99.334 35.2031 102.034 34.5031 103.934C33.7031 105.834 31.9031 109.234 30.4031 111.434C28.9031 113.634 27.1031 117.434 26.5031 119.934C25.8031 122.434 24.2031 126.234 22.9031 128.434C21.6031 130.634 19.9031 135.634 19.0031 139.434C18.1031 143.334 16.3031 148.634 15.0031 151.434C9.7031 162.834 10.0031 121.434 10.0031 925.434C10.0031 1638.03 10.1031 1671.93 11.8031 1681.83C12.8031 1687.53 14.3031 1693.83 15.1031 1695.83C15.9031 1697.83 17.5031 1702.83 18.6031 1706.93C19.7031 1711.03 21.6031 1715.93 22.7031 1717.73C23.8031 1719.53 25.5031 1723.73 26.6031 1727.13C27.6031 1730.43 29.5031 1734.43 30.8031 1735.83C32.2031 1737.23 34.0031 1740.73 34.9031 1743.43C35.8031 1746.23 37.8031 1749.73 39.5031 1751.23C41.1031 1752.83 42.5031 1754.63 42.5031 1755.33C42.5031 1755.93 44.3031 1758.63 46.5031 1761.33C48.7031 1763.93 50.5031 1766.53 50.5031 1767.13C50.5031 1769.33 75.3031 1792.03 84.9031 1798.53C86.6031 1799.73 89.1031 1801.83 90.4031 1803.33C91.8031 1804.73 93.4031 1805.93 94.0031 1805.93C94.7031 1805.93 98.3031 1807.93 102.103 1810.43C105.803 1812.93 109.303 1814.93 109.903 1814.93C110.403 1814.93 112.903 1816.23 115.403 1817.83C117.903 1819.43 122.903 1821.53 126.503 1822.43C130.003 1823.33 134.803 1825.13 137.003 1826.43C139.303 1827.83 144.303 1829.33 148.503 1830.03C152.603 1830.63 158.003 1831.73 160.503 1832.53C174.403 1836.53 148.303 1836.43 853.503 1836.43C1392.9 1836.43 1528.7 1836.13 1531.4 1835.13C1533.3 1834.53 1540.9 1832.83 1548.3 1831.43C1557 1829.83 1564.1 1827.83 1567.9 1826.03C1571.3 1824.43 1576.4 1822.63 1579.2 1821.93C1582.1 1821.23 1585.5 1819.93 1586.8 1818.93C1588.1 1817.93 1591.7 1815.93 1594.9 1814.53C1598 1813.13 1601.8 1811.03 1603.3 1809.93C1604.8 1808.73 1607.6 1806.73 1609.5 1805.43C1611.4 1804.03 1614.8 1801.73 1617 1800.23C1623 1796.03 1639.4 1781.33 1644.5 1775.63C1647 1772.83 1650.6 1768.93 1652.6 1766.93C1654.6 1765.03 1656.8 1762.33 1657.5 1760.93C1658.2 1759.53 1660.5 1756.13 1662.6 1753.33C1664.8 1750.53 1666.5 1747.83 1666.5 1747.43C1666.5 1747.03 1667.7 1745.13 1669.1 1743.23C1670.5 1741.43 1672.5 1737.43 1673.5 1734.53C1674.5 1731.53 1676.3 1727.83 1677.4 1726.23C1678.6 1724.73 1680.4 1720.03 1681.6 1715.93C1682.7 1711.83 1684.6 1706.93 1685.7 1705.13C1686.9 1703.13 1688.3 1698.03 1689.2 1692.13C1689.9 1686.83 1691.7 1679.23 1693 1675.23L1695.5 1668.13V923.034C1695.5 190.734 1695.5 177.934 1693.6 173.134C1692.5 170.434 1690.7 162.934 1689.5 156.334C1688.2 148.734 1686.5 142.934 1685 140.334C1683.7 138.134 1681.9 133.334 1681.1 129.734C1680.3 126.034 1678.2 120.934 1676.5 118.334C1674.9 115.734 1673.5 113.034 1673.5 112.334C1673.5 111.734 1671.9 108.834 1670 106.034C1668.1 103.234 1666.5 100.534 1666.5 100.034C1666.5 99.534 1664.8 96.934 1662.8 94.234C1660.8 91.634 1658.2 87.834 1657.1 85.934C1655.9 84.034 1654 81.334 1652.7 79.934C1647.7 74.534 1628.8 55.634 1625.5 52.834C1616.3 45.034 1613.7 43.034 1609.5 41.034C1607 39.834 1603.7 37.934 1602 36.834C1594.6 31.734 1585.5 27.034 1580 25.534C1576.7 24.534 1572.2 22.734 1570 21.434C1567.8 20.234 1562.6 18.634 1558.5 17.934C1554.4 17.234 1548.5 15.834 1545.5 14.734C1531.4 9.73398 1570 9.93398 849.503 10.034C189.603 10.034 177.803 10.134 169.003 12.034ZM1515 21.934C1517.8 22.334 1523.8 23.234 1528.5 23.934C1545.8 26.234 1548.8 26.934 1553.8 29.234C1556.7 30.634 1561.4 32.234 1564.4 32.834C1572.3 34.534 1594.3 45.734 1608.8 55.534C1615.4 60.034 1620.2 64.134 1631.2 75.234C1642.8 86.834 1646.6 91.234 1649 95.934C1650 97.834 1652 100.834 1653.6 102.634C1655.1 104.434 1657.2 107.834 1658.3 110.134C1659.3 112.534 1661.4 116.134 1662.8 118.234C1664.2 120.334 1665.7 123.434 1666 125.234C1666.4 127.034 1668 130.734 1669.6 133.534C1671.2 136.334 1673.1 141.834 1674 145.734C1674.8 149.734 1676.6 155.534 1677.9 158.634C1679.4 162.234 1680.7 168.334 1681.4 174.734C1682.9 189.134 1683 1655.43 1681.4 1671.93C1680.6 1680.73 1679.7 1684.93 1677.5 1689.93C1676 1693.53 1674.1 1699.23 1673.4 1702.73C1672.8 1706.23 1671.2 1710.53 1670 1712.33C1668.8 1714.13 1666.8 1718.73 1665.7 1722.63C1664.5 1726.53 1662.8 1730.23 1661.9 1731.03C1661.1 1731.73 1659.1 1734.83 1657.5 1737.93C1655.9 1741.03 1654 1744.13 1653.1 1744.83C1652.3 1745.53 1650.7 1747.83 1649.5 1750.03C1648.4 1752.33 1644.1 1757.83 1640 1762.53C1635.9 1767.13 1632.5 1771.33 1632.5 1771.83C1632.5 1772.33 1631.6 1773.03 1630.5 1773.43C1629.4 1773.73 1626.7 1775.73 1624.6 1777.73C1618.1 1783.73 1612.3 1788.43 1608 1791.13C1605.8 1792.53 1603.3 1794.43 1602.5 1795.43C1601.7 1796.33 1598.8 1798.13 1596 1799.33C1593.3 1800.63 1590.4 1802.33 1589.7 1803.23C1588.9 1804.13 1585.8 1805.83 1582.7 1806.93C1579.5 1808.13 1575.7 1809.93 1574 1810.93C1572.4 1811.93 1567.9 1813.53 1564 1814.53C1560.2 1815.43 1555.3 1817.03 1553.3 1818.03C1551.3 1819.13 1545.4 1820.73 1540.3 1821.63C1531.5 1823.33 1496.1 1823.43 855.003 1823.43C353.603 1823.43 176.303 1823.13 168.503 1822.33C161.803 1821.53 155.703 1820.23 151.703 1818.53C148.203 1817.13 142.603 1815.33 139.403 1814.43C136.103 1813.63 131.503 1811.83 129.203 1810.43C126.803 1809.13 123.003 1807.33 120.703 1806.53C118.403 1805.63 115.003 1803.93 113.203 1802.53C111.503 1801.23 108.303 1799.43 106.103 1798.53C104.003 1797.63 100.703 1795.63 98.9031 1793.93C97.0031 1792.33 95.1031 1790.93 94.7031 1790.93C94.3031 1790.93 91.1031 1788.23 87.5031 1784.83C83.9031 1781.53 79.4031 1777.63 77.5031 1776.13C73.4031 1773.03 58.5031 1757.83 58.5031 1756.73C58.5031 1756.33 56.7031 1753.93 54.5031 1751.43C52.3031 1748.93 50.5031 1746.33 50.5031 1745.73C50.5031 1745.13 49.0031 1742.63 47.1031 1740.03C45.3031 1737.53 43.4031 1734.33 43.0031 1732.93C42.6031 1731.53 40.8031 1727.73 39.0031 1724.43C37.2031 1721.13 35.0031 1715.93 34.0031 1712.93C33.0031 1709.93 31.2031 1705.43 29.9031 1702.93C27.8031 1698.73 25.6031 1687.63 21.0031 1657.93C19.5031 1648.33 19.4031 1586.63 19.7031 918.934L20.0031 190.434L23.8031 169.934C28.1031 146.534 28.1031 146.334 30.6031 142.834C31.6031 141.434 33.4031 136.734 34.5031 132.334C35.7031 128.034 37.5031 123.534 38.4031 122.434C39.4031 121.334 41.2031 118.234 42.3031 115.634C43.5031 113.034 45.3031 109.734 46.4031 108.334C47.5031 106.934 49.3031 103.834 50.5031 101.334C51.7031 98.934 53.1031 96.934 53.5031 96.934C54.0031 96.934 55.9031 94.634 57.7031 91.934C59.5031 89.134 61.3031 86.934 61.7031 86.934C62.1031 86.934 64.0031 84.534 66.0031 81.534C68.0031 78.534 70.6031 75.434 71.8031 74.634C73.0031 73.834 77.6031 69.934 82.0031 66.034C86.4031 62.034 91.7031 57.934 93.8031 56.834C95.9031 55.734 97.9031 54.134 98.2031 53.234C98.5031 52.434 101.303 50.534 104.403 49.234C107.503 47.834 110.903 45.934 112.003 44.934C113.103 43.934 116.303 42.334 119.003 41.434C121.803 40.534 125.603 38.634 127.603 37.234C129.703 35.934 134.203 34.134 137.603 33.334C141.103 32.534 146.503 30.634 149.503 29.234C153.403 27.434 158.403 26.234 167.003 25.234C173.603 24.434 181.303 23.234 184.003 22.434C188.103 21.434 307.103 21.134 849.503 21.134C1212.8 21.134 1512.3 21.434 1515 21.934Z"/>
</mask>
<path d="M169.003 12.034C164.103 13.034 158.003 14.634 155.503 15.334C153.003 16.134 148.303 17.334 145.003 18.034C141.703 18.634 137.203 20.034 135.003 21.134C132.903 22.234 128.603 24.034 125.603 25.034C122.603 26.134 118.103 28.234 115.603 29.834C113.103 31.434 109.203 33.234 107.003 33.934C104.803 34.634 102.103 35.934 101.003 36.934C99.9031 37.934 97.2031 39.634 95.0031 40.734C92.8031 41.834 90.1031 43.734 89.0031 44.934C87.9031 46.134 85.0031 48.234 82.5031 49.534C80.0031 50.834 75.3031 54.434 72.0031 57.634C68.7031 60.834 64.9031 64.234 63.5031 65.134C62.2031 66.134 59.9031 68.434 58.5031 70.334C53.6031 77.134 47.2031 85.234 45.4031 87.034C44.4031 88.034 42.9031 90.334 41.9031 92.134C41.0031 93.934 39.3031 96.534 38.0031 97.934C36.8031 99.334 35.2031 102.034 34.5031 103.934C33.7031 105.834 31.9031 109.234 30.4031 111.434C28.9031 113.634 27.1031 117.434 26.5031 119.934C25.8031 122.434 24.2031 126.234 22.9031 128.434C21.6031 130.634 19.9031 135.634 19.0031 139.434C18.1031 143.334 16.3031 148.634 15.0031 151.434C9.7031 162.834 10.0031 121.434 10.0031 925.434C10.0031 1638.03 10.1031 1671.93 11.8031 1681.83C12.8031 1687.53 14.3031 1693.83 15.1031 1695.83C15.9031 1697.83 17.5031 1702.83 18.6031 1706.93C19.7031 1711.03 21.6031 1715.93 22.7031 1717.73C23.8031 1719.53 25.5031 1723.73 26.6031 1727.13C27.6031 1730.43 29.5031 1734.43 30.8031 1735.83C32.2031 1737.23 34.0031 1740.73 34.9031 1743.43C35.8031 1746.23 37.8031 1749.73 39.5031 1751.23C41.1031 1752.83 42.5031 1754.63 42.5031 1755.33C42.5031 1755.93 44.3031 1758.63 46.5031 1761.33C48.7031 1763.93 50.5031 1766.53 50.5031 1767.13C50.5031 1769.33 75.3031 1792.03 84.9031 1798.53C86.6031 1799.73 89.1031 1801.83 90.4031 1803.33C91.8031 1804.73 93.4031 1805.93 94.0031 1805.93C94.7031 1805.93 98.3031 1807.93 102.103 1810.43C105.803 1812.93 109.303 1814.93 109.903 1814.93C110.403 1814.93 112.903 1816.23 115.403 1817.83C117.903 1819.43 122.903 1821.53 126.503 1822.43C130.003 1823.33 134.803 1825.13 137.003 1826.43C139.303 1827.83 144.303 1829.33 148.503 1830.03C152.603 1830.63 158.003 1831.73 160.503 1832.53C174.403 1836.53 148.303 1836.43 853.503 1836.43C1392.9 1836.43 1528.7 1836.13 1531.4 1835.13C1533.3 1834.53 1540.9 1832.83 1548.3 1831.43C1557 1829.83 1564.1 1827.83 1567.9 1826.03C1571.3 1824.43 1576.4 1822.63 1579.2 1821.93C1582.1 1821.23 1585.5 1819.93 1586.8 1818.93C1588.1 1817.93 1591.7 1815.93 1594.9 1814.53C1598 1813.13 1601.8 1811.03 1603.3 1809.93C1604.8 1808.73 1607.6 1806.73 1609.5 1805.43C1611.4 1804.03 1614.8 1801.73 1617 1800.23C1623 1796.03 1639.4 1781.33 1644.5 1775.63C1647 1772.83 1650.6 1768.93 1652.6 1766.93C1654.6 1765.03 1656.8 1762.33 1657.5 1760.93C1658.2 1759.53 1660.5 1756.13 1662.6 1753.33C1664.8 1750.53 1666.5 1747.83 1666.5 1747.43C1666.5 1747.03 1667.7 1745.13 1669.1 1743.23C1670.5 1741.43 1672.5 1737.43 1673.5 1734.53C1674.5 1731.53 1676.3 1727.83 1677.4 1726.23C1678.6 1724.73 1680.4 1720.03 1681.6 1715.93C1682.7 1711.83 1684.6 1706.93 1685.7 1705.13C1686.9 1703.13 1688.3 1698.03 1689.2 1692.13C1689.9 1686.83 1691.7 1679.23 1693 1675.23L1695.5 1668.13V923.034C1695.5 190.734 1695.5 177.934 1693.6 173.134C1692.5 170.434 1690.7 162.934 1689.5 156.334C1688.2 148.734 1686.5 142.934 1685 140.334C1683.7 138.134 1681.9 133.334 1681.1 129.734C1680.3 126.034 1678.2 120.934 1676.5 118.334C1674.9 115.734 1673.5 113.034 1673.5 112.334C1673.5 111.734 1671.9 108.834 1670 106.034C1668.1 103.234 1666.5 100.534 1666.5 100.034C1666.5 99.534 1664.8 96.934 1662.8 94.234C1660.8 91.634 1658.2 87.834 1657.1 85.934C1655.9 84.034 1654 81.334 1652.7 79.934C1647.7 74.534 1628.8 55.634 1625.5 52.834C1616.3 45.034 1613.7 43.034 1609.5 41.034C1607 39.834 1603.7 37.934 1602 36.834C1594.6 31.734 1585.5 27.034 1580 25.534C1576.7 24.534 1572.2 22.734 1570 21.434C1567.8 20.234 1562.6 18.634 1558.5 17.934C1554.4 17.234 1548.5 15.834 1545.5 14.734C1531.4 9.73398 1570 9.93398 849.503 10.034C189.603 10.034 177.803 10.134 169.003 12.034ZM1515 21.934C1517.8 22.334 1523.8 23.234 1528.5 23.934C1545.8 26.234 1548.8 26.934 1553.8 29.234C1556.7 30.634 1561.4 32.234 1564.4 32.834C1572.3 34.534 1594.3 45.734 1608.8 55.534C1615.4 60.034 1620.2 64.134 1631.2 75.234C1642.8 86.834 1646.6 91.234 1649 95.934C1650 97.834 1652 100.834 1653.6 102.634C1655.1 104.434 1657.2 107.834 1658.3 110.134C1659.3 112.534 1661.4 116.134 1662.8 118.234C1664.2 120.334 1665.7 123.434 1666 125.234C1666.4 127.034 1668 130.734 1669.6 133.534C1671.2 136.334 1673.1 141.834 1674 145.734C1674.8 149.734 1676.6 155.534 1677.9 158.634C1679.4 162.234 1680.7 168.334 1681.4 174.734C1682.9 189.134 1683 1655.43 1681.4 1671.93C1680.6 1680.73 1679.7 1684.93 1677.5 1689.93C1676 1693.53 1674.1 1699.23 1673.4 1702.73C1672.8 1706.23 1671.2 1710.53 1670 1712.33C1668.8 1714.13 1666.8 1718.73 1665.7 1722.63C1664.5 1726.53 1662.8 1730.23 1661.9 1731.03C1661.1 1731.73 1659.1 1734.83 1657.5 1737.93C1655.9 1741.03 1654 1744.13 1653.1 1744.83C1652.3 1745.53 1650.7 1747.83 1649.5 1750.03C1648.4 1752.33 1644.1 1757.83 1640 1762.53C1635.9 1767.13 1632.5 1771.33 1632.5 1771.83C1632.5 1772.33 1631.6 1773.03 1630.5 1773.43C1629.4 1773.73 1626.7 1775.73 1624.6 1777.73C1618.1 1783.73 1612.3 1788.43 1608 1791.13C1605.8 1792.53 1603.3 1794.43 1602.5 1795.43C1601.7 1796.33 1598.8 1798.13 1596 1799.33C1593.3 1800.63 1590.4 1802.33 1589.7 1803.23C1588.9 1804.13 1585.8 1805.83 1582.7 1806.93C1579.5 1808.13 1575.7 1809.93 1574 1810.93C1572.4 1811.93 1567.9 1813.53 1564 1814.53C1560.2 1815.43 1555.3 1817.03 1553.3 1818.03C1551.3 1819.13 1545.4 1820.73 1540.3 1821.63C1531.5 1823.33 1496.1 1823.43 855.003 1823.43C353.603 1823.43 176.303 1823.13 168.503 1822.33C161.803 1821.53 155.703 1820.23 151.703 1818.53C148.203 1817.13 142.603 1815.33 139.403 1814.43C136.103 1813.63 131.503 1811.83 129.203 1810.43C126.803 1809.13 123.003 1807.33 120.703 1806.53C118.403 1805.63 115.003 1803.93 113.203 1802.53C111.503 1801.23 108.303 1799.43 106.103 1798.53C104.003 1797.63 100.703 1795.63 98.9031 1793.93C97.0031 1792.33 95.1031 1790.93 94.7031 1790.93C94.3031 1790.93 91.1031 1788.23 87.5031 1784.83C83.9031 1781.53 79.4031 1777.63 77.5031 1776.13C73.4031 1773.03 58.5031 1757.83 58.5031 1756.73C58.5031 1756.33 56.7031 1753.93 54.5031 1751.43C52.3031 1748.93 50.5031 1746.33 50.5031 1745.73C50.5031 1745.13 49.0031 1742.63 47.1031 1740.03C45.3031 1737.53 43.4031 1734.33 43.0031 1732.93C42.6031 1731.53 40.8031 1727.73 39.0031 1724.43C37.2031 1721.13 35.0031 1715.93 34.0031 1712.93C33.0031 1709.93 31.2031 1705.43 29.9031 1702.93C27.8031 1698.73 25.6031 1687.63 21.0031 1657.93C19.5031 1648.33 19.4031 1586.63 19.7031 918.934L20.0031 190.434L23.8031 169.934C28.1031 146.534 28.1031 146.334 30.6031 142.834C31.6031 141.434 33.4031 136.734 34.5031 132.334C35.7031 128.034 37.5031 123.534 38.4031 122.434C39.4031 121.334 41.2031 118.234 42.3031 115.634C43.5031 113.034 45.3031 109.734 46.4031 108.334C47.5031 106.934 49.3031 103.834 50.5031 101.334C51.7031 98.934 53.1031 96.934 53.5031 96.934C54.0031 96.934 55.9031 94.634 57.7031 91.934C59.5031 89.134 61.3031 86.934 61.7031 86.934C62.1031 86.934 64.0031 84.534 66.0031 81.534C68.0031 78.534 70.6031 75.434 71.8031 74.634C73.0031 73.834 77.6031 69.934 82.0031 66.034C86.4031 62.034 91.7031 57.934 93.8031 56.834C95.9031 55.734 97.9031 54.134 98.2031 53.234C98.5031 52.434 101.303 50.534 104.403 49.234C107.503 47.834 110.903 45.934 112.003 44.934C113.103 43.934 116.303 42.334 119.003 41.434C121.803 40.534 125.603 38.634 127.603 37.234C129.703 35.934 134.203 34.134 137.603 33.334C141.103 32.534 146.503 30.634 149.503 29.234C153.403 27.434 158.403 26.234 167.003 25.234C173.603 24.434 181.303 23.234 184.003 22.434C188.103 21.434 307.103 21.134 849.503 21.134C1212.8 21.134 1512.3 21.434 1515 21.934Z" fill="black"/>
<path d="M169.003 12.034C164.103 13.034 158.003 14.634 155.503 15.334C153.003 16.134 148.303 17.334 145.003 18.034C141.703 18.634 137.203 20.034 135.003 21.134C132.903 22.234 128.603 24.034 125.603 25.034C122.603 26.134 118.103 28.234 115.603 29.834C113.103 31.434 109.203 33.234 107.003 33.934C104.803 34.634 102.103 35.934 101.003 36.934C99.9031 37.934 97.2031 39.634 95.0031 40.734C92.8031 41.834 90.1031 43.734 89.0031 44.934C87.9031 46.134 85.0031 48.234 82.5031 49.534C80.0031 50.834 75.3031 54.434 72.0031 57.634C68.7031 60.834 64.9031 64.234 63.5031 65.134C62.2031 66.134 59.9031 68.434 58.5031 70.334C53.6031 77.134 47.2031 85.234 45.4031 87.034C44.4031 88.034 42.9031 90.334 41.9031 92.134C41.0031 93.934 39.3031 96.534 38.0031 97.934C36.8031 99.334 35.2031 102.034 34.5031 103.934C33.7031 105.834 31.9031 109.234 30.4031 111.434C28.9031 113.634 27.1031 117.434 26.5031 119.934C25.8031 122.434 24.2031 126.234 22.9031 128.434C21.6031 130.634 19.9031 135.634 19.0031 139.434C18.1031 143.334 16.3031 148.634 15.0031 151.434C9.7031 162.834 10.0031 121.434 10.0031 925.434C10.0031 1638.03 10.1031 1671.93 11.8031 1681.83C12.8031 1687.53 14.3031 1693.83 15.1031 1695.83C15.9031 1697.83 17.5031 1702.83 18.6031 1706.93C19.7031 1711.03 21.6031 1715.93 22.7031 1717.73C23.8031 1719.53 25.5031 1723.73 26.6031 1727.13C27.6031 1730.43 29.5031 1734.43 30.8031 1735.83C32.2031 1737.23 34.0031 1740.73 34.9031 1743.43C35.8031 1746.23 37.8031 1749.73 39.5031 1751.23C41.1031 1752.83 42.5031 1754.63 42.5031 1755.33C42.5031 1755.93 44.3031 1758.63 46.5031 1761.33C48.7031 1763.93 50.5031 1766.53 50.5031 1767.13C50.5031 1769.33 75.3031 1792.03 84.9031 1798.53C86.6031 1799.73 89.1031 1801.83 90.4031 1803.33C91.8031 1804.73 93.4031 1805.93 94.0031 1805.93C94.7031 1805.93 98.3031 1807.93 102.103 1810.43C105.803 1812.93 109.303 1814.93 109.903 1814.93C110.403 1814.93 112.903 1816.23 115.403 1817.83C117.903 1819.43 122.903 1821.53 126.503 1822.43C130.003 1823.33 134.803 1825.13 137.003 1826.43C139.303 1827.83 144.303 1829.33 148.503 1830.03C152.603 1830.63 158.003 1831.73 160.503 1832.53C174.403 1836.53 148.303 1836.43 853.503 1836.43C1392.9 1836.43 1528.7 1836.13 1531.4 1835.13C1533.3 1834.53 1540.9 1832.83 1548.3 1831.43C1557 1829.83 1564.1 1827.83 1567.9 1826.03C1571.3 1824.43 1576.4 1822.63 1579.2 1821.93C1582.1 1821.23 1585.5 1819.93 1586.8 1818.93C1588.1 1817.93 1591.7 1815.93 1594.9 1814.53C1598 1813.13 1601.8 1811.03 1603.3 1809.93C1604.8 1808.73 1607.6 1806.73 1609.5 1805.43C1611.4 1804.03 1614.8 1801.73 1617 1800.23C1623 1796.03 1639.4 1781.33 1644.5 1775.63C1647 1772.83 1650.6 1768.93 1652.6 1766.93C1654.6 1765.03 1656.8 1762.33 1657.5 1760.93C1658.2 1759.53 1660.5 1756.13 1662.6 1753.33C1664.8 1750.53 1666.5 1747.83 1666.5 1747.43C1666.5 1747.03 1667.7 1745.13 1669.1 1743.23C1670.5 1741.43 1672.5 1737.43 1673.5 1734.53C1674.5 1731.53 1676.3 1727.83 1677.4 1726.23C1678.6 1724.73 1680.4 1720.03 1681.6 1715.93C1682.7 1711.83 1684.6 1706.93 1685.7 1705.13C1686.9 1703.13 1688.3 1698.03 1689.2 1692.13C1689.9 1686.83 1691.7 1679.23 1693 1675.23L1695.5 1668.13V923.034C1695.5 190.734 1695.5 177.934 1693.6 173.134C1692.5 170.434 1690.7 162.934 1689.5 156.334C1688.2 148.734 1686.5 142.934 1685 140.334C1683.7 138.134 1681.9 133.334 1681.1 129.734C1680.3 126.034 1678.2 120.934 1676.5 118.334C1674.9 115.734 1673.5 113.034 1673.5 112.334C1673.5 111.734 1671.9 108.834 1670 106.034C1668.1 103.234 1666.5 100.534 1666.5 100.034C1666.5 99.534 1664.8 96.934 1662.8 94.234C1660.8 91.634 1658.2 87.834 1657.1 85.934C1655.9 84.034 1654 81.334 1652.7 79.934C1647.7 74.534 1628.8 55.634 1625.5 52.834C1616.3 45.034 1613.7 43.034 1609.5 41.034C1607 39.834 1603.7 37.934 1602 36.834C1594.6 31.734 1585.5 27.034 1580 25.534C1576.7 24.534 1572.2 22.734 1570 21.434C1567.8 20.234 1562.6 18.634 1558.5 17.934C1554.4 17.234 1548.5 15.834 1545.5 14.734C1531.4 9.73398 1570 9.93398 849.503 10.034C189.603 10.034 177.803 10.134 169.003 12.034ZM1515 21.934C1517.8 22.334 1523.8 23.234 1528.5 23.934C1545.8 26.234 1548.8 26.934 1553.8 29.234C1556.7 30.634 1561.4 32.234 1564.4 32.834C1572.3 34.534 1594.3 45.734 1608.8 55.534C1615.4 60.034 1620.2 64.134 1631.2 75.234C1642.8 86.834 1646.6 91.234 1649 95.934C1650 97.834 1652 100.834 1653.6 102.634C1655.1 104.434 1657.2 107.834 1658.3 110.134C1659.3 112.534 1661.4 116.134 1662.8 118.234C1664.2 120.334 1665.7 123.434 1666 125.234C1666.4 127.034 1668 130.734 1669.6 133.534C1671.2 136.334 1673.1 141.834 1674 145.734C1674.8 149.734 1676.6 155.534 1677.9 158.634C1679.4 162.234 1680.7 168.334 1681.4 174.734C1682.9 189.134 1683 1655.43 1681.4 1671.93C1680.6 1680.73 1679.7 1684.93 1677.5 1689.93C1676 1693.53 1674.1 1699.23 1673.4 1702.73C1672.8 1706.23 1671.2 1710.53 1670 1712.33C1668.8 1714.13 1666.8 1718.73 1665.7 1722.63C1664.5 1726.53 1662.8 1730.23 1661.9 1731.03C1661.1 1731.73 1659.1 1734.83 1657.5 1737.93C1655.9 1741.03 1654 1744.13 1653.1 1744.83C1652.3 1745.53 1650.7 1747.83 1649.5 1750.03C1648.4 1752.33 1644.1 1757.83 1640 1762.53C1635.9 1767.13 1632.5 1771.33 1632.5 1771.83C1632.5 1772.33 1631.6 1773.03 1630.5 1773.43C1629.4 1773.73 1626.7 1775.73 1624.6 1777.73C1618.1 1783.73 1612.3 1788.43 1608 1791.13C1605.8 1792.53 1603.3 1794.43 1602.5 1795.43C1601.7 1796.33 1598.8 1798.13 1596 1799.33C1593.3 1800.63 1590.4 1802.33 1589.7 1803.23C1588.9 1804.13 1585.8 1805.83 1582.7 1806.93C1579.5 1808.13 1575.7 1809.93 1574 1810.93C1572.4 1811.93 1567.9 1813.53 1564 1814.53C1560.2 1815.43 1555.3 1817.03 1553.3 1818.03C1551.3 1819.13 1545.4 1820.73 1540.3 1821.63C1531.5 1823.33 1496.1 1823.43 855.003 1823.43C353.603 1823.43 176.303 1823.13 168.503 1822.33C161.803 1821.53 155.703 1820.23 151.703 1818.53C148.203 1817.13 142.603 1815.33 139.403 1814.43C136.103 1813.63 131.503 1811.83 129.203 1810.43C126.803 1809.13 123.003 1807.33 120.703 1806.53C118.403 1805.63 115.003 1803.93 113.203 1802.53C111.503 1801.23 108.303 1799.43 106.103 1798.53C104.003 1797.63 100.703 1795.63 98.9031 1793.93C97.0031 1792.33 95.1031 1790.93 94.7031 1790.93C94.3031 1790.93 91.1031 1788.23 87.5031 1784.83C83.9031 1781.53 79.4031 1777.63 77.5031 1776.13C73.4031 1773.03 58.5031 1757.83 58.5031 1756.73C58.5031 1756.33 56.7031 1753.93 54.5031 1751.43C52.3031 1748.93 50.5031 1746.33 50.5031 1745.73C50.5031 1745.13 49.0031 1742.63 47.1031 1740.03C45.3031 1737.53 43.4031 1734.33 43.0031 1732.93C42.6031 1731.53 40.8031 1727.73 39.0031 1724.43C37.2031 1721.13 35.0031 1715.93 34.0031 1712.93C33.0031 1709.93 31.2031 1705.43 29.9031 1702.93C27.8031 1698.73 25.6031 1687.63 21.0031 1657.93C19.5031 1648.33 19.4031 1586.63 19.7031 918.934L20.0031 190.434L23.8031 169.934C28.1031 146.534 28.1031 146.334 30.6031 142.834C31.6031 141.434 33.4031 136.734 34.5031 132.334C35.7031 128.034 37.5031 123.534 38.4031 122.434C39.4031 121.334 41.2031 118.234 42.3031 115.634C43.5031 113.034 45.3031 109.734 46.4031 108.334C47.5031 106.934 49.3031 103.834 50.5031 101.334C51.7031 98.934 53.1031 96.934 53.5031 96.934C54.0031 96.934 55.9031 94.634 57.7031 91.934C59.5031 89.134 61.3031 86.934 61.7031 86.934C62.1031 86.934 64.0031 84.534 66.0031 81.534C68.0031 78.534 70.6031 75.434 71.8031 74.634C73.0031 73.834 77.6031 69.934 82.0031 66.034C86.4031 62.034 91.7031 57.934 93.8031 56.834C95.9031 55.734 97.9031 54.134 98.2031 53.234C98.5031 52.434 101.303 50.534 104.403 49.234C107.503 47.834 110.903 45.934 112.003 44.934C113.103 43.934 116.303 42.334 119.003 41.434C121.803 40.534 125.603 38.634 127.603 37.234C129.703 35.934 134.203 34.134 137.603 33.334C141.103 32.534 146.503 30.634 149.503 29.234C153.403 27.434 158.403 26.234 167.003 25.234C173.603 24.434 181.303 23.234 184.003 22.434C188.103 21.434 307.103 21.134 849.503 21.134C1212.8 21.134 1512.3 21.434 1515 21.934Z" stroke="black" stroke-width="20" mask="url(#path-1-outside-1)"/>
<path d="M557.382 317.749L557.558 317.75C610.304 318.197 610.98 318.203 615.012 323.355C619.048 328.288 619.272 338.379 619.272 606.348V883.959L613.891 890.238L608.509 896.517H548.636L557.382 317.749ZM557.382 317.749C527.782 317.525 499.751 317.749 494.818 318.422L557.382 317.749ZM474.204 887.213L473 885.809V883.959V605.227C473 473.955 473.056 404.168 473.589 366.787C473.855 348.138 474.241 337.387 474.818 331.058C475.104 327.92 475.459 325.595 475.965 323.844C476.506 321.974 477.321 320.401 478.722 319.163C480.46 317.621 483.151 316.355 485.634 315.457C488.24 314.516 491.312 313.732 494.261 313.452C497.237 313.071 505.803 312.858 516.8 312.749C528.161 312.637 542.599 312.637 557.419 312.749L557.424 312.749L558.249 312.756C584.012 312.974 597.517 313.089 605.007 313.809C608.781 314.172 611.669 314.732 613.991 315.898C616.507 317.162 617.888 318.918 618.92 320.236C620.873 322.645 621.747 325.454 622.355 331.468C622.968 337.539 623.375 347.842 623.655 366.137C624.216 402.821 624.272 472.388 624.272 606.348V883.959V885.809L623.069 887.213L617.687 893.492L612.305 899.771L610.808 901.517H608.509H548.636H488.764H486.464L484.967 899.771L479.586 893.492L474.204 887.213ZM587.363 612.627C587.363 603.425 587.364 594.545 587.364 585.974C587.371 467.15 587.374 407.875 585.995 377.766C585.626 369.715 585.163 363.869 584.593 359.584C584.016 355.245 583.364 352.801 582.756 351.388C582.231 350.166 581.831 349.914 581.601 349.772C581.165 349.502 580.806 349.373 580.037 349.096C579.601 348.94 579.033 348.735 578.244 348.431C577.915 348.305 576.814 348.043 574.663 347.776C572.657 347.528 570.107 347.316 567.163 347.148C561.282 346.812 554.037 346.659 546.833 346.687C539.628 346.714 532.543 346.923 526.98 347.299C524.191 347.488 521.856 347.714 520.11 347.967C519.234 348.094 518.576 348.219 518.118 348.33C517.929 348.375 517.81 348.41 517.747 348.43C517.184 348.75 516.762 348.98 516.431 349.16C515.748 349.532 515.448 349.696 515.079 350.01C514.837 350.215 514.399 350.632 513.882 352.098C512.673 355.526 511.691 362.658 511.054 378.966C509.896 408.643 509.9 466.341 509.908 581.103C509.908 590.822 509.909 600.95 509.909 611.506V860.778L513.925 862.919C515.553 863.72 518.336 864.483 523.868 864.993C529.4 865.504 537.223 865.729 548.636 865.729C560.049 865.729 567.873 865.504 573.404 864.993C578.936 864.483 581.719 863.72 583.348 862.919L587.363 860.778V612.627Z" fill="black" stroke="black" stroke-width="10"/>
<path d="M1262.34 320.13L1262.4 320.078L1262.46 320.027L1271.05 313.106L1272.42 312H1274.19H1328.66C1355.07 312 1369.08 312.062 1377.38 312.927C1381.61 313.367 1384.74 314.047 1387.43 315.218C1390.14 316.399 1392.1 317.954 1393.98 319.494L1394 319.505L1394.01 319.516L1401.7 325.883L1403.51 327.383V329.733V606.272V882.81V885.161L1401.7 886.661L1394.01 893.027L1394 893.039L1393.98 893.05C1392.1 894.59 1390.14 896.146 1387.42 897.327C1384.73 898.498 1381.59 899.177 1377.35 899.617C1369.03 900.482 1354.95 900.544 1328.43 900.544C1301.92 900.544 1287.84 900.482 1279.52 899.617C1275.28 899.177 1272.14 898.498 1269.45 897.327C1266.73 896.146 1264.77 894.59 1262.89 893.05L1262.87 893.039L1262.86 893.027L1255.17 886.661L1253.37 885.166L1253.36 882.823L1252.69 606.838L1252.69 606.834L1252.23 331.126L1252.23 328.827L1253.97 327.328L1262.34 320.13ZM1292.69 856.251C1292.81 857.096 1292.92 857.615 1292.99 857.902C1293.08 858.036 1293.19 858.148 1293.58 858.326C1294.26 858.637 1295.6 859.023 1298.29 859.331C1303.68 859.948 1312.73 860.094 1328.66 860.094C1346.63 860.094 1355.34 860.009 1360.06 859.287C1362.31 858.942 1363 858.532 1363.23 858.366C1363.46 858.196 1363.73 857.924 1364.55 856.523C1364.55 856.523 1364.55 856.523 1364.55 856.523C1364.57 856.486 1364.78 856.034 1365.04 854.632C1365.31 853.156 1365.57 850.94 1365.81 847.578C1366.28 840.863 1366.64 830.071 1366.89 812.496C1367.4 777.385 1367.51 715.629 1367.51 606.272C1367.51 496.915 1367.4 435.158 1366.89 400.048C1366.64 382.473 1366.28 371.68 1365.81 364.966C1365.57 361.603 1365.31 359.388 1365.04 357.912C1364.78 356.501 1364.57 356.053 1364.55 356.021C1363.73 354.619 1363.46 354.348 1363.23 354.178C1363 354.011 1362.31 353.602 1360.06 353.257C1355.34 352.535 1346.63 352.45 1328.66 352.45C1312.73 352.45 1303.68 352.595 1298.29 353.213C1295.6 353.521 1294.26 353.907 1293.58 354.218C1293.19 354.396 1293.08 354.508 1292.99 354.642C1292.92 354.929 1292.81 355.448 1292.69 356.293C1292.45 358.001 1292.22 360.614 1292.01 364.456C1291.59 372.114 1291.28 384.211 1291.05 402.77C1290.6 439.861 1290.49 502.456 1290.49 606.272C1290.49 710.088 1290.6 772.683 1291.05 809.774C1291.28 828.333 1291.59 840.43 1292.01 848.088C1292.22 851.93 1292.45 854.543 1292.69 856.251ZM1293.05 354.459C1293.05 354.458 1293.04 354.474 1293.03 354.509C1293.04 354.478 1293.05 354.46 1293.05 354.459ZM1293.03 858.035C1293.04 858.07 1293.05 858.086 1293.05 858.085C1293.05 858.084 1293.04 858.066 1293.03 858.035Z" fill="black" stroke="black" stroke-width="10"/>
<path d="M758.136 1282.22L758.148 1282.17L758.161 1282.12C759.593 1276.39 762.945 1268.06 766.424 1263.5C768.775 1260.36 772.132 1254.11 773.835 1250.1C775.626 1245.3 779.871 1237.8 783.196 1233.29C788.31 1226.28 798.29 1215.87 808.174 1206.63C813.157 1201.98 818.202 1197.54 822.713 1193.89C827.109 1190.33 831.248 1187.31 834.406 1185.65C839.838 1182.61 847.462 1177.82 851.61 1174.98C854.002 1173.23 856.683 1171.67 859.184 1170.53C861.466 1169.49 864.232 1168.5 866.668 1168.46C868.16 1168.36 871.443 1167.58 877.322 1165.61C883.107 1163.66 890.91 1160.73 901.081 1156.7C909.413 1153.33 918.423 1152.99 943.434 1153.66L943.444 1153.66L943.453 1153.66C958.162 1154.1 966.776 1154.44 974.701 1155.8C982.687 1157.17 989.842 1159.56 1001.68 1163.8C1008.73 1166.19 1015.89 1168.92 1021.71 1171.37C1024.63 1172.6 1027.24 1173.78 1029.37 1174.82C1031.32 1175.79 1033.2 1176.8 1034.44 1177.76C1037.58 1180.05 1044.24 1184.14 1048.91 1186.47C1052.74 1188.39 1057.59 1192.02 1062.6 1196.28C1067.71 1200.62 1073.28 1205.88 1078.59 1211.3C1083.9 1216.73 1089 1222.37 1093.16 1227.5C1097.21 1232.48 1100.64 1237.31 1102.34 1241.09C1104.89 1246.39 1109.59 1253.84 1112.43 1257.28L1112.46 1257.32L1112.49 1257.36C1116.5 1262.44 1120.11 1271.12 1121.78 1280.38C1123.33 1288.11 1125.9 1296.49 1127.16 1299.02C1130.92 1306.43 1132.96 1317.11 1134.08 1336.67C1135.21 1356.39 1135.43 1385.86 1135.1 1431.37L1134.42 1522.19L1134.4 1525.29L1131.61 1526.65L1123.83 1530.42C1121.31 1531.75 1118.46 1532.58 1113.41 1533.17C1108.38 1533.76 1100.82 1534.14 1088.69 1534.41C1064.38 1534.94 1020.97 1535 941.059 1535C857.009 1535 813.7 1534.94 790.55 1534.35C779.022 1534.06 772.238 1533.63 767.842 1532.96C763.13 1532.23 760.903 1531.19 758.616 1529.78L751.226 1525.31L748.817 1523.85V1521.03V1423.04V1422.65C748.817 1372.66 748.817 1347.69 749.978 1330.23C751.123 1313 753.409 1302.96 757.753 1283.91C757.879 1283.35 758.007 1282.79 758.136 1282.22ZM1040.78 1228.08L1040.75 1228.06L1040.73 1228.05C1037.52 1225.87 1034.4 1223.62 1031.96 1221.71C1030.75 1220.76 1029.65 1219.85 1028.78 1219.05C1028.35 1218.66 1027.92 1218.24 1027.54 1217.83C1027.34 1217.61 1027.05 1217.27 1026.75 1216.85C1026.66 1216.77 1026.5 1216.63 1026.24 1216.44C1025.63 1215.98 1024.75 1215.39 1023.64 1214.71C1021.44 1213.35 1018.56 1211.74 1015.54 1210.23C1008.98 1207.06 1000.2 1202.56 995.912 1200.3C994.413 1199.52 990.781 1198.34 985.702 1197.16C980.8 1196.02 975.036 1194.99 969.615 1194.34C953.13 1192.36 935.404 1192.09 920.104 1193.24C904.557 1194.41 892.313 1197.01 886.252 1200.28L886.229 1200.29L886.206 1200.3C881.907 1202.57 872.218 1207.52 864.76 1211.14C856.736 1215.05 846.207 1223.13 834.716 1234.62C811.636 1257.7 805.638 1265.78 801.118 1278.1L801.076 1278.22L801.028 1278.33C798.597 1284.08 794.693 1293.28 792.107 1298.21C788.871 1304.39 786.644 1312.57 785.29 1329.45C783.935 1346.35 783.484 1371.44 783.484 1411.15C783.484 1448.31 783.823 1470.81 784.871 1484.46C785.397 1491.31 786.082 1495.62 786.876 1498.32C787.266 1499.65 787.634 1500.42 787.905 1500.85C787.907 1500.85 787.909 1500.85 787.911 1500.86C788.358 1500.89 788.927 1500.93 789.625 1500.98C791.765 1501.1 794.877 1501.23 798.883 1501.35C806.881 1501.59 818.292 1501.81 832.283 1501.99C860.258 1502.35 898.468 1502.58 940.162 1502.58C1015.79 1502.58 1053.58 1502.58 1073.02 1501.99C1082.84 1501.69 1087.56 1501.25 1090.04 1500.71C1091.19 1500.45 1091.55 1500.24 1091.62 1500.19L1091.63 1500.19C1091.7 1500.14 1091.77 1500.1 1092.3 1499.52C1092.81 1498.94 1093.18 1498.47 1093.56 1497.04C1094.02 1495.31 1094.43 1492.4 1094.75 1486.96C1095.38 1476.16 1095.61 1456.81 1095.94 1420.3C1096.84 1322.88 1095.16 1308.27 1082.79 1283.31L1082.78 1283.31C1070.37 1258.27 1053.59 1236.55 1040.78 1228.08Z" fill="black" stroke="black" stroke-width="10"/>
<path d="M158.674 1182.58L158.69 1182.54L158.705 1182.49C160.188 1178.59 162.121 1172.25 163.089 1168.52C164.85 1161.2 170.764 1152.72 178.984 1144.07C186.19 1136.41 195.293 1130.78 203.62 1128.94C209.263 1127.69 217.691 1127.08 225.749 1127.01C233.798 1126.94 242.093 1127.39 247.464 1128.5L247.478 1128.5L247.491 1128.5C254.661 1130.02 262.657 1134.67 269.904 1140.58C277.24 1146.57 284.274 1154.23 289.434 1162.35L289.44 1162.36L289.445 1162.36C296.83 1174.08 298.951 1189.06 296.732 1206.96C295.828 1214.42 294.305 1220.32 290.857 1226.36C287.496 1232.25 282.457 1237.98 275.07 1245.37C267.531 1252.91 262.656 1257.76 256.369 1260.34C250.16 1262.89 242.89 1263.09 231.333 1263.36C220.221 1263.65 211.601 1263.41 205.134 1262.44C198.934 1261.5 193.691 1259.75 190.395 1256.12C189.22 1254.98 186.352 1252.92 184.02 1251.69C174.503 1246.83 166.814 1235.39 161.14 1220.56C158.076 1212.75 156.268 1206.36 155.862 1200.29C155.449 1194.11 156.511 1188.6 158.674 1182.58ZM243.836 1157.13L243.778 1157.1L243.721 1157.07C236.912 1153.53 231.597 1151.84 227.242 1151.49C223.877 1151.22 222.338 1151.28 220.418 1151.82C218.185 1152.45 215.32 1153.77 209.505 1156.68L209.494 1156.68L209.482 1156.69C203.947 1159.42 201.149 1160.98 199.196 1162.55C197.41 1163.99 196.161 1165.56 194.125 1168.82L194.12 1168.83C189.472 1176.24 187.408 1179.72 186.289 1182.73C185.246 1185.54 184.976 1188.07 184.616 1193.98L184.616 1193.98C183.792 1207.43 185.673 1213.72 189.993 1218.49C191.366 1219.95 192.679 1221.58 193.726 1223.07C194.465 1224.12 195.323 1225.45 195.879 1226.74C195.914 1226.77 195.953 1226.8 195.995 1226.84C196.524 1227.28 197.367 1227.9 198.519 1228.66C200.801 1230.15 203.941 1231.95 207.368 1233.66L207.378 1233.66L207.388 1233.67C213.927 1236.98 216.658 1238.29 219.107 1238.88C221.403 1239.45 223.597 1239.42 229.388 1239.12L229.408 1239.12L229.427 1239.12C234.482 1238.9 237.019 1238.66 238.789 1238.19C240.262 1237.81 241.327 1237.24 243.252 1235.74L243.283 1235.72L243.313 1235.7C244.852 1234.54 246.42 1233.48 247.748 1232.69C248.405 1232.29 249.075 1231.92 249.696 1231.63C250.003 1231.48 250.373 1231.32 250.771 1231.19C250.817 1231.17 250.874 1231.15 250.94 1231.13C251.334 1230.83 251.904 1230.35 252.636 1229.7C254.199 1228.3 256.249 1226.32 258.396 1224.11L258.408 1224.1L258.419 1224.08C262.142 1220.29 263.693 1218.47 264.777 1216.44C265.897 1214.35 266.656 1211.8 268.104 1206.16L270.66 1195.3L267.834 1184.38L267.831 1184.37L267.828 1184.36C266.472 1179 265.591 1176.28 264.523 1174.24C263.517 1172.32 262.22 1170.77 259.45 1168C256.31 1164.86 249.221 1159.75 243.836 1157.13Z" fill="black" stroke="black" stroke-width="10"/>
<path d="M187.682 1326.05L187.593 1326.1C184.969 1327.35 178.236 1329.65 172.431 1331.54C169.328 1332.47 166.053 1333.77 163.238 1335.1C160.574 1336.36 157.866 1337.86 156.167 1339.33C154.186 1340.95 151.233 1342.47 149.836 1342.84C148.803 1343.07 147.803 1343.51 147.021 1343.89C146.116 1344.33 145.132 1344.89 144.125 1345.5C142.104 1346.73 139.775 1348.32 137.428 1350.04C132.787 1353.44 127.715 1357.63 124.572 1360.93C122.465 1363.12 118.3 1368.42 114.815 1373.07C113.031 1375.45 111.344 1377.76 110.091 1379.56C109.47 1380.46 108.92 1381.28 108.511 1381.94C108.312 1382.26 108.099 1382.61 107.919 1382.96C107.832 1383.13 107.709 1383.38 107.595 1383.68L107.589 1383.69C107.569 1383.74 107.53 1383.84 107.483 1383.99C107.288 1384.3 106.968 1384.77 106.52 1385.38C105.58 1386.66 104.249 1388.33 102.771 1390.01C101.076 1391.93 99.5108 1393.96 98.3387 1395.72C97.7576 1396.59 97.2196 1397.48 96.8057 1398.3C96.5996 1398.71 96.3858 1399.18 96.2139 1399.68C96.0982 1400.02 95.9231 1400.58 95.8541 1401.27C95.8324 1401.34 95.8014 1401.44 95.7586 1401.56C95.5896 1402.04 95.3169 1402.72 94.9426 1403.58C94.1992 1405.28 93.1522 1407.45 91.9917 1409.63L91.9854 1409.64L91.9792 1409.65C85.2453 1422.5 83 1438.53 83 1466.27C83 1496.08 84.736 1510.78 90.6948 1520.71L90.7093 1520.73L90.724 1520.76C92.834 1524.19 95.2091 1529.23 96.0719 1531.8C97.2831 1535.58 100.035 1540.44 102.624 1543.38C104.347 1545.35 107.071 1549.38 108.28 1551.92L108.317 1552L108.357 1552.07C109.626 1554.52 112.18 1557.75 115.026 1561.01C117.981 1564.4 121.597 1568.19 125.316 1571.86C129.034 1575.52 132.904 1579.1 136.374 1582.04C139.721 1584.88 143.031 1587.41 145.559 1588.7C148.884 1590.43 153.637 1593.42 156.018 1595.13C157.76 1596.41 159.997 1597.62 162.167 1598.55C164.281 1599.46 166.699 1600.28 168.868 1600.59C171.647 1601.09 177.265 1602.91 181.014 1604.72L181.051 1604.73L181.089 1604.75C195.344 1611.34 208.63 1613.2 232.101 1612.34C248.408 1611.77 255.151 1611.06 262.8 1608.21C263.505 1607.97 264.294 1607.71 265.148 1607.42C270.075 1605.77 277.127 1603.41 282.244 1601.86C285.473 1600.89 288.782 1599.69 291.544 1598.51C292.924 1597.92 294.219 1597.31 295.326 1596.72C296.34 1596.17 297.519 1595.47 298.426 1594.64C299.626 1593.54 303.413 1591.08 306.758 1589.47L306.794 1589.46L306.83 1589.44C309.855 1587.93 314.099 1584.52 318.446 1580.65C322.953 1576.65 328.045 1571.71 332.893 1566.69C337.738 1561.69 342.399 1556.55 346.029 1552.13C347.84 1549.93 349.439 1547.85 350.686 1546.03C351.828 1544.36 352.956 1542.51 353.509 1540.81C354.521 1537.93 356.873 1533.09 358.776 1530.16C361.734 1525.79 364.308 1518.22 365.775 1511.18L365.777 1511.17L365.779 1511.16C367.067 1504.86 368.891 1496.31 369.986 1492.21L369.994 1492.18L370.002 1492.15C372.789 1481.14 374.316 1474.01 373.945 1465.13C373.583 1456.49 371.423 1446.35 367.461 1429.23M187.682 1326.05L348.768 1539.23C349.908 1535.95 352.473 1530.68 354.61 1527.4C357.033 1523.84 359.455 1517 360.88 1510.16C362.163 1503.89 364.015 1495.19 365.155 1490.92C370.712 1468.97 370.57 1464.84 362.59 1430.36C358.743 1413.69 350.05 1394.16 342.783 1385.76M187.682 1326.05L187.773 1326.02C191.336 1324.49 198.232 1322.84 203.264 1322.1C208.58 1321.32 221.931 1321.05 233.035 1321.34M187.682 1326.05L189.742 1330.61C192.735 1329.33 199.147 1327.76 203.992 1327.05C208.837 1326.34 221.804 1326.05 232.919 1326.34M367.461 1429.23L362.602 1430.36L367.462 1429.23C367.462 1429.23 367.462 1429.23 367.461 1429.23ZM367.461 1429.23C365.457 1420.54 362.212 1411.19 358.538 1402.93C354.91 1394.77 350.696 1387.28 346.597 1382.52M346.597 1382.52C346.606 1382.53 346.615 1382.55 346.624 1382.56L342.783 1385.76M346.597 1382.52C346.587 1382.51 346.576 1382.5 346.566 1382.49L342.783 1385.76M346.597 1382.52C345.624 1381.35 344.755 1380.2 344.157 1379.29C343.928 1378.95 343.77 1378.68 343.67 1378.5M342.783 1385.76C340.646 1383.19 338.793 1380.48 338.793 1379.63C338.793 1378.49 326.396 1365.81 314.854 1355.12M314.854 1355.12L318.265 1351.47C318.264 1351.46 318.262 1351.46 318.26 1351.46M314.854 1355.12C312.716 1353.13 307.872 1349.85 303.882 1347.85M314.854 1355.12L318.251 1351.45C318.254 1351.45 318.257 1351.46 318.26 1351.46M343.67 1378.5C343.74 1378.82 343.793 1379.21 343.793 1379.63C343.793 1378.94 343.629 1378.48 343.61 1378.42C343.597 1378.38 343.587 1378.36 343.579 1378.34C343.561 1378.29 343.559 1378.29 343.588 1378.35C343.609 1378.39 343.636 1378.44 343.67 1378.5ZM343.67 1378.5C343.573 1378.06 343.443 1377.74 343.38 1377.58C343.232 1377.23 343.069 1376.93 342.954 1376.74C342.72 1376.34 342.452 1375.97 342.222 1375.67C341.747 1375.04 341.121 1374.3 340.419 1373.51C338.998 1371.9 337.024 1369.81 334.728 1367.46C330.128 1362.75 324.088 1356.86 318.26 1351.46M318.26 1351.46C315.701 1349.07 310.492 1345.58 306.218 1343.43M303.882 1347.85L306.31 1343.48C306.279 1343.47 306.249 1343.45 306.218 1343.43M303.882 1347.85C300.034 1345.72 294.619 1342.58 292.197 1340.73C289.632 1338.88 284.645 1336.88 280.94 1336.31C277.235 1335.88 269.54 1333.46 263.698 1331.18C254.008 1327.19 251.301 1326.76 232.919 1326.34M303.882 1347.85L306.118 1343.38C306.151 1343.4 306.185 1343.41 306.218 1343.43M306.218 1343.43C302.303 1341.25 297.294 1338.33 295.234 1336.76L295.18 1336.71L295.124 1336.67C291.847 1334.31 286.096 1332.05 281.7 1331.37L281.607 1331.35L281.513 1331.34C278.513 1331 271.372 1328.81 265.558 1326.54M265.558 1326.54C265.573 1326.55 265.587 1326.55 265.602 1326.56L263.698 1331.18L265.515 1326.52C265.53 1326.53 265.544 1326.53 265.558 1326.54ZM265.558 1326.54C260.629 1324.51 257.104 1323.23 252.345 1322.48C247.769 1321.76 242.148 1321.55 233.035 1321.34M233.035 1321.34C233.039 1321.34 233.043 1321.34 233.047 1321.34L232.919 1326.34M233.035 1321.34L232.919 1326.34M95.8937 1401.14C95.9061 1401.09 95.9016 1401.1 95.8904 1401.15C95.8917 1401.15 95.8928 1401.14 95.8937 1401.14ZM235.111 1348.32L235.085 1348.31L235.058 1348.3C229.606 1347.03 226.349 1346.51 223.888 1346.51C221.658 1346.51 219.936 1346.94 217.586 1348L217.562 1348.01L217.538 1348.02C215.834 1348.76 212.826 1349.49 209.787 1350.1C206.575 1350.75 202.758 1351.37 199.077 1351.81C190.087 1353.06 185.46 1354.51 181.76 1356.71C177.966 1358.98 172.174 1361.81 168.635 1363.19C162.798 1365.5 154.993 1371.29 145.139 1381.29L145.134 1381.29C139.019 1387.48 132.312 1395.67 126.89 1403.25C124.184 1407.04 121.84 1410.61 120.071 1413.65C118.27 1416.75 117.269 1418.96 116.934 1420.17C116.094 1423.78 113.553 1430.74 111.425 1435.84L111.42 1435.85C109.625 1440.14 108.88 1442.22 108.463 1445.81C108.006 1449.74 107.962 1455.37 107.962 1466.68C108.034 1477.84 108.11 1483.53 108.554 1487.45C108.958 1491.03 109.648 1493.02 111.263 1496.79L111.266 1496.8L111.27 1496.8C113.308 1501.61 115.97 1508.83 117.052 1512.85L117.058 1512.87L117.064 1512.89C117.866 1515.98 120.491 1521 122.706 1523.56L122.749 1523.61L122.791 1523.66C124.17 1525.35 125.466 1527.11 126.446 1528.64C126.931 1529.4 127.392 1530.18 127.75 1530.92C127.929 1531.29 128.119 1531.72 128.273 1532.19C128.367 1532.47 128.505 1532.93 128.577 1533.5C128.688 1533.72 128.885 1534.07 129.204 1534.55C129.951 1535.68 131.106 1537.19 132.632 1538.99C135.665 1542.58 139.858 1547.02 144.367 1551.44C148.87 1555.85 153.609 1560.18 157.709 1563.57C159.761 1565.26 161.608 1566.69 163.155 1567.76C164.737 1568.85 165.734 1569.39 166.199 1569.57C168.905 1570.49 173.9 1573.11 177.458 1575.24C178.662 1575.93 181.487 1577 185.745 1578.23C189.867 1579.42 194.894 1580.66 200.118 1581.77C210.708 1584.03 221.519 1585.67 227.076 1585.67C231.306 1585.67 242.644 1583.8 253.762 1581.46C259.209 1580.32 264.4 1579.1 268.371 1578.03C270.364 1577.49 271.981 1577 273.143 1576.59C273.728 1576.39 274.126 1576.23 274.368 1576.12C274.37 1576.12 274.372 1576.11 274.375 1576.11C275.476 1575.21 277.119 1574.21 278.629 1573.35C280.437 1572.33 282.557 1571.23 284.544 1570.31L284.588 1570.29L284.632 1570.27C292.98 1566.61 304.186 1557.6 314.099 1547.07C324.076 1536.48 331.791 1525.36 334.004 1517.98C335.377 1513.41 338.053 1506.87 339.878 1503.22L339.89 1503.19L339.903 1503.17C340.924 1501.18 341.922 1498.04 342.889 1492.79C343.846 1487.59 344.72 1480.64 345.642 1471.22C345.744 1470.07 345.702 1467.19 345.469 1463.19C345.242 1459.31 344.859 1454.7 344.37 1450.31C342.976 1438.46 341.496 1432.79 338.682 1426.78L338.673 1426.76L338.663 1426.74C336.381 1421.74 333.908 1415.5 333.214 1412.55L333.181 1412.41L333.157 1412.28C333.067 1411.77 332.744 1410.82 332.134 1409.67C331.541 1408.56 330.853 1407.58 330.284 1406.97L330.279 1406.97L330.274 1406.96C328.212 1404.73 324.86 1399.8 322.726 1396.39L322.685 1396.32L322.645 1396.25C319.766 1391.31 313.819 1384.71 306.564 1378.33C299.361 1371.99 291.311 1366.25 284.546 1362.87L284.519 1362.86L284.492 1362.84C279.773 1360.41 274.051 1357.41 271.89 1356.25L271.778 1356.2L271.67 1356.13C271.673 1356.13 271.673 1356.13 271.668 1356.13C271.647 1356.12 271.53 1356.06 271.278 1355.95C270.995 1355.83 270.618 1355.69 270.144 1355.53C269.193 1355.21 267.978 1354.86 266.566 1354.49C263.744 1353.77 260.325 1353.05 257.033 1352.5C250.128 1351.35 240.348 1349.48 235.111 1348.32ZM128.476 1533.28C128.474 1533.27 128.481 1533.29 128.499 1533.34C128.486 1533.3 128.477 1533.28 128.476 1533.28ZM274.538 1576.03C274.538 1576.03 274.524 1576.04 274.5 1576.05C274.527 1576.04 274.539 1576.03 274.538 1576.03Z" fill="black" stroke="black" stroke-width="10"/>
<path d="M198.12 1375.62L198.153 1375.62L198.186 1375.61C210.503 1372.82 216.637 1372.05 229.243 1372.5C238.104 1372.79 247.656 1374.04 255.635 1375.74C259.625 1376.58 263.306 1377.56 266.358 1378.62C269.239 1379.62 272.128 1380.88 274.057 1382.51L274.13 1382.58L274.201 1382.64C275.589 1383.91 279.417 1386.71 282.648 1388.82C295.202 1396.79 305.467 1408.79 312.652 1423.75C315.701 1429.92 317.554 1433.93 318.764 1438.55C319.954 1443.09 320.482 1448.08 321.256 1456.1L321.258 1456.12L321.259 1456.14C323.301 1479.18 320.76 1496.21 312.447 1510.02C311.148 1512.2 309.968 1514.37 309.128 1516.06C308.704 1516.92 308.397 1517.6 308.209 1518.07C308.175 1518.15 308.148 1518.22 308.127 1518.28C308.03 1519.1 307.788 1519.77 307.605 1520.21C307.346 1520.83 307.021 1521.41 306.707 1521.91C306.079 1522.91 305.255 1523.97 304.361 1525.02C302.555 1527.15 300.111 1529.64 297.401 1532.18C291.994 1537.26 285.146 1542.91 279.425 1546.67C272.159 1551.51 264.415 1555.15 255.075 1557.72C249.347 1559.37 245.299 1560.39 240.701 1560.89C236.157 1561.37 231.24 1561.32 223.773 1561.04C213.698 1560.74 204 1559.42 195.781 1557.3C187.735 1555.23 180.558 1552.26 175.976 1548.32C174.89 1547.43 173.808 1546.63 172.966 1546.08C172.662 1545.88 172.429 1545.74 172.264 1545.65C171.484 1545.46 170.928 1545.16 170.754 1545.06C170.746 1545.06 170.738 1545.06 170.732 1545.05C170.288 1544.81 169.882 1544.54 169.559 1544.3C168.895 1543.82 168.15 1543.19 167.391 1542.52C165.853 1541.16 163.937 1539.32 161.913 1537.28C157.867 1533.19 153.156 1528.09 149.821 1524.01L149.787 1523.97L149.753 1523.93C146.887 1520.26 143.227 1513.85 141.485 1509.42C140.005 1505.65 137.272 1499.91 135.539 1496.84C132.75 1492.11 131.182 1485.86 130.526 1478.86C129.862 1471.78 130.1 1463.57 131.201 1454.69C132.42 1444.63 134.467 1438.28 139.602 1427.13L139.628 1427.07L139.655 1427.02C141.526 1423.2 143.352 1419.65 144.822 1417.03C145.548 1415.74 146.24 1414.57 146.839 1413.69C147.125 1413.26 147.485 1412.76 147.888 1412.32C148.082 1412.11 148.412 1411.76 148.858 1411.44C148.986 1411.34 149.286 1411.13 149.73 1410.91C149.808 1410.83 149.898 1410.72 149.998 1410.6C150.619 1409.86 151.43 1408.73 152.255 1407.41C154.182 1404.11 158.282 1399.42 161.903 1395.75C163.781 1393.84 165.687 1392.05 167.32 1390.7C168.126 1390.03 168.959 1389.4 169.747 1388.9C170.139 1388.65 170.614 1388.37 171.138 1388.15C171.364 1388.05 171.725 1387.9 172.183 1387.78C172.392 1387.66 172.679 1387.47 173.039 1387.22C174.01 1386.54 175.262 1385.58 176.503 1384.53C181.214 1380.39 186.885 1378.33 198.12 1375.62ZM308.068 1518.45C308.055 1518.49 308.061 1518.48 308.074 1518.43C308.071 1518.44 308.069 1518.44 308.068 1518.45ZM172.052 1545.53C172.052 1545.53 172.053 1545.53 172.057 1545.54C172.053 1545.53 172.052 1545.53 172.052 1545.53ZM253.932 1404.49L253.921 1404.48L253.909 1404.48C248.314 1401.68 245.437 1400.38 242.537 1399.63C239.64 1398.87 236.503 1398.59 230.27 1398.3C222.085 1397.95 217.475 1398.02 213.458 1398.85C209.52 1399.66 205.849 1401.25 199.681 1404.54C196.881 1406.09 194.139 1407.46 191.93 1408.46C190.828 1408.96 189.805 1409.39 188.946 1409.71C188.521 1409.87 188.076 1410.02 187.647 1410.14C187.528 1410.17 187.345 1410.22 187.115 1410.27C186.745 1410.53 186.205 1410.97 185.501 1411.59C183.968 1412.94 182.003 1414.88 179.936 1417.08C175.709 1421.57 171.592 1426.57 169.972 1429.33L169.95 1429.37L169.927 1429.4C169.682 1429.8 169.411 1430.25 169.121 1430.72C167.54 1433.31 165.396 1436.81 163.963 1439.2L163.917 1439.28L163.868 1439.35C163.196 1440.39 162.541 1441.76 162.06 1443.13C161.548 1444.59 161.398 1445.57 161.398 1445.89C161.398 1447.42 161.079 1449.86 160.671 1452.31C160.243 1454.87 159.65 1457.84 158.977 1460.61C157.811 1465.42 157.445 1467.21 157.562 1469.46C157.691 1471.96 158.42 1475.11 160.246 1482.42C163.092 1493.37 164.861 1497.14 167.268 1499.86L167.308 1499.91L167.347 1499.95C168.567 1501.4 169.749 1502.93 170.656 1504.27C171.103 1504.93 171.542 1505.63 171.89 1506.3C172.063 1506.64 172.256 1507.05 172.416 1507.49C172.494 1507.71 172.611 1508.06 172.695 1508.51C172.696 1508.51 172.696 1508.51 172.697 1508.51C172.95 1508.92 173.401 1509.54 174.077 1510.36C175.414 1511.97 177.324 1514 179.469 1516.08C181.605 1518.14 183.893 1520.18 185.955 1521.84C188.124 1523.58 189.708 1524.61 190.512 1524.98L190.605 1525.02L190.696 1525.06L190.775 1525.1C193.862 1526.65 199.35 1529.39 202.911 1531.46C205.538 1532.94 206.848 1533.51 209.348 1533.87C212.284 1534.29 216.687 1534.37 225.509 1534.37C245.097 1534.37 250.186 1532.89 253.523 1529.94C255.646 1528.02 259.726 1525.63 262.755 1524.36L262.775 1524.35L262.796 1524.34C264.094 1523.81 266.19 1522.47 268.846 1520.31C271.413 1518.22 274.219 1515.59 276.9 1512.79C279.582 1509.99 282.077 1507.08 284.045 1504.42C286.078 1501.68 287.303 1499.55 287.761 1498.25C289.08 1494.44 291.696 1487.74 293.795 1483.39C297.991 1474.12 297.975 1465.77 291.997 1446.99C288.509 1436.26 284.346 1428.39 278.546 1421.9C272.724 1415.38 264.993 1409.95 253.932 1404.49Z" fill="black" stroke="black" stroke-width="10"/>
</svg>
