<?xml version="1.0" standalone="no"?>
<!DOCTYPE svg PUBLIC "-//W3C//DTD SVG 20010904//EN"
 "http://www.w3.org/TR/2001/REC-SVG-20010904/DTD/svg10.dtd">
<svg version="1.0" xmlns="http://www.w3.org/2000/svg"
 width="1114.000000pt" height="966.000000pt" viewBox="0 0 1114.000000 966.000000"
 preserveAspectRatio="xMidYMid meet">

<g transform="translate(0.000000,966.000000) scale(0.100000,-0.100000)"
fill="#000000" stroke="none">
<path d="M820 9634 c-102 -30 -246 -97 -332 -155 -76 -52 -224 -193 -283 -269
-67 -87 -132 -208 -170 -313 l-35 -98 0 -3979 0 -3979 26 -73 c66 -185 160
-335 287 -461 134 -133 266 -216 445 -281 l73 -26 680 0 680 0 75 25 c296 99
548 327 683 616 22 46 56 137 75 202 l36 118 0 3859 0 3859 -35 118 c-65 217
-151 368 -294 516 -146 151 -299 248 -496 312 l-106 35 -612 -1 -612 0 -85
-25z m1325 -313 c268 -88 455 -277 529 -531 15 -50 16 -410 14 -3985 l-3
-3930 -33 -82 c-82 -205 -242 -361 -455 -444 -79 -31 -89 -32 -297 -41 -118
-5 -379 -7 -580 -5 -341 4 -370 5 -440 26 -159 47 -318 155 -407 274 -65 88
-122 212 -133 288 -6 38 -10 1632 -10 3966 l0 3902 29 81 c101 276 341 467
636 504 17 2 266 3 555 2 519 -2 526 -2 595 -25z"/>
<path d="M1060 5061 c-130 -27 -223 -152 -204 -277 8 -53 53 -125 105 -166 55
-44 125 -50 602 -46 l422 3 51 27 c98 52 138 122 132 234 -3 61 -8 80 -33 116
-17 23 -49 56 -73 72 -37 26 -53 30 -144 37 -128 10 -810 9 -858 0z m808 -218
c69 -5 82 -9 82 -23 0 -12 -11 -20 -31 -24 -41 -8 -775 -6 -814 3 -44 9 -38
35 10 42 55 8 651 10 753 2z"/>
<path d="M4729 9635 c-188 -65 -342 -166 -479 -313 -163 -173 -253 -341 -313
-582 l-21 -85 -3 -3830 -3 -3830 35 -130 c43 -158 119 -320 202 -430 125 -167
310 -316 493 -397 l87 -38 2839 2 2839 3 85 42 c286 141 515 383 620 654 l30
79 -2 4052 -3 4053 -37 83 c-62 141 -134 247 -248 362 -58 59 -134 127 -170
152 -81 57 -209 122 -303 154 l-71 24 -2755 -1 -2756 0 -66 -24z m5521 -265
c69 -17 217 -94 292 -150 112 -85 201 -211 258 -369 l30 -82 0 -3943 0 -3942
-24 -70 c-33 -99 -70 -169 -133 -251 -70 -93 -155 -161 -276 -224 -86 -44
-110 -52 -195 -62 -71 -9 -782 -12 -2687 -12 -2919 0 -2633 -8 -2810 80 -195
96 -326 247 -401 460 -31 89 -35 610 -31 4340 3 3369 5 3604 21 3665 53 202
202 388 388 486 145 75 155 77 448 85 488 11 5070 2 5120 -11z"/>
<path d="M5085 5061 c-132 -17 -226 -136 -212 -268 8 -78 46 -136 120 -184
l62 -40 475 3 475 3 54 30 c107 59 154 172 119 287 -15 50 -78 122 -132 151
-40 22 -48 22 -476 23 -239 1 -457 -1 -485 -5z m859 -221 c14 -5 26 -16 26
-25 0 -13 -50 -15 -437 -13 -338 2 -437 6 -441 16 -2 6 7 16 20 21 31 13 799
14 832 1z"/>
<path d="M4963 1669 c-77 -38 -116 -124 -94 -206 29 -106 144 -161 249 -118
55 23 81 53 98 111 26 91 -8 174 -89 213 -55 27 -111 27 -164 0z"/>
<path d="M5403 1674 c-38 -19 -90 -93 -99 -139 -14 -78 56 -187 131 -201 97
-18 175 19 215 101 39 81 8 182 -71 229 -44 26 -135 31 -176 10z"/>
<path d="M5866 1680 c-16 -5 -47 -26 -68 -47 -125 -122 -23 -321 153 -300 113
14 187 131 148 234 -12 34 -64 90 -101 109 -30 15 -87 17 -132 4z"/>
<path d="M4522 1229 c-74 -37 -113 -120 -98 -204 17 -87 132 -158 218 -134 52
14 113 70 133 124 16 39 16 48 1 97 -34 117 -148 169 -254 117z"/>
<path d="M4975 1236 c-43 -19 -103 -89 -111 -130 -20 -110 54 -206 165 -214
96 -7 161 37 191 131 42 134 -114 270 -245 213z"/>
<path d="M5425 1238 c-74 -26 -132 -118 -120 -193 12 -82 72 -144 148 -152 71
-8 113 4 156 45 75 71 78 177 8 251 -54 57 -121 74 -192 49z"/>
<path d="M5855 1236 c-42 -18 -92 -78 -105 -125 -34 -128 94 -255 223 -220 86
23 147 121 132 211 -8 47 -64 114 -112 135 -41 16 -99 16 -138 -1z"/>
<path d="M6300 1239 c-32 -13 -78 -56 -96 -91 -23 -44 -18 -125 11 -175 39
-66 119 -101 189 -82 93 25 153 105 142 192 -14 120 -139 198 -246 156z"/>
<path d="M4981 799 c-46 -18 -84 -53 -102 -93 -63 -139 60 -292 207 -255 136
34 186 206 90 303 -49 48 -136 69 -195 45z"/>
<path d="M5428 801 c-79 -26 -136 -116 -124 -199 14 -106 124 -179 226 -152
121 33 175 175 105 281 -37 57 -139 92 -207 70z"/>
<path d="M5865 797 c-150 -60 -162 -256 -22 -329 122 -63 267 24 267 159 0 53
-36 120 -80 149 -44 29 -122 39 -165 21z"/>
</g>
</svg>
