<?xml version="1.0" standalone="no"?>
<!DOCTYPE svg PUBLIC "-//W3C//DTD SVG 20010904//EN"
 "http://www.w3.org/TR/2001/REC-SVG-20010904/DTD/svg10.dtd">
<svg version="1.0" xmlns="http://www.w3.org/2000/svg"
 width="1174.000000pt" height="1284.000000pt" viewBox="0 0 1174.000000 1284.000000"
 preserveAspectRatio="xMidYMid meet">

<g transform="translate(0.000000,1284.000000) scale(0.100000,-0.100000)"
fill="#000000" stroke="none">
<path d="M2075 12829 c-157 -14 -356 -40 -500 -65 -312 -54 -712 -157 -815
-209 -86 -43 -178 -116 -276 -217 -161 -167 -203 -256 -299 -641 -238 -950
-220 -1923 56 -2900 56 -199 105 -286 239 -430 142 -152 265 -226 475 -285
399 -113 796 -183 1204 -213 319 -23 812 -3 1150 47 358 52 828 170 963 241
81 42 235 170 302 249 118 142 154 216 221 461 266 964 271 1918 15 2908 -52
201 -77 280 -105 336 -85 164 -296 371 -457 448 -211 99 -847 233 -1293 271
-140 11 -748 11 -880 -1z"/>
<path d="M8900 8924 c-140 -10 -370 -37 -520 -60 -347 -53 -799 -166 -920
-230 -149 -78 -333 -257 -418 -407 -83 -147 -206 -635 -261 -1042 -33 -235
-41 -342 -47 -610 -8 -287 5 -534 42 -825 46 -365 174 -920 244 -1061 90 -178
302 -386 473 -464 131 -60 594 -173 897 -219 786 -120 1605 -65 2390 160 220
63 320 123 475 286 140 145 185 229 250 456 133 471 200 919 212 1407 12 521
-47 1021 -182 1541 -80 306 -113 379 -242 528 -85 98 -209 201 -302 250 -181
94 -753 222 -1216 272 -134 15 -745 27 -875 18z"/>
<path d="M3100 5014 c-434 -22 -860 -94 -1315 -221 -209 -58 -311 -120 -466
-280 -147 -153 -188 -228 -259 -478 -89 -314 -150 -635 -186 -981 -25 -234
-25 -808 -1 -1039 35 -326 83 -589 163 -907 57 -227 85 -307 133 -388 92 -154
278 -329 426 -400 82 -39 308 -106 540 -159 676 -156 1410 -174 2130 -51 316
54 719 156 825 210 171 87 388 309 461 474 51 116 156 539 203 817 133 787 88
1611 -134 2417 -57 209 -74 250 -146 359 -90 136 -232 266 -359 330 -97 49
-465 150 -740 202 -184 35 -408 66 -580 81 -131 11 -575 20 -695 14z"/>
</g>
</svg>
