<?xml version="1.0" standalone="no"?>
<!DOCTYPE svg PUBLIC "-//W3C//DTD SVG 20010904//EN"
 "http://www.w3.org/TR/2001/REC-SVG-20010904/DTD/svg10.dtd">
<svg version="1.0" xmlns="http://www.w3.org/2000/svg"
 width="1092.000000pt" height="1091.000000pt" viewBox="0 0 1092.000000 1091.000000"
 preserveAspectRatio="xMidYMid meet">

<g transform="translate(0.000000,1091.000000) scale(0.100000,-0.100000)"
fill="#000000" stroke="none">
<path d="M3860 10884 c-739 -86 -1578 -247 -1905 -366 -599 -218 -1127 -679
-1421 -1242 -138 -264 -217 -510 -308 -952 -81 -393 -161 -894 -205 -1290 -20
-175 -21 -231 -21 -1956 l0 -1776 56 -164 c31 -89 69 -187 85 -216 21 -38 39
-99 65 -225 48 -234 118 -533 150 -636 45 -149 155 -384 267 -571 186 -310
514 -639 842 -845 129 -81 363 -195 501 -244 344 -123 1127 -271 1969 -373
190 -23 193 -23 1510 -23 l1320 0 230 28 c791 96 1540 236 1893 353 646 215
1175 673 1498 1298 135 260 176 392 283 889 47 220 65 285 84 310 40 53 62
105 116 270 l51 158 0 1675 c0 1829 3 1704 -61 2214 -69 551 -205 1288 -295
1596 -244 844 -947 1541 -1795 1778 -337 94 -967 212 -1569 293 l-275 37
-1430 2 -1430 2 -205 -24z m2335 -144 c863 -54 1720 -174 2382 -336 354 -86
655 -227 933 -437 107 -81 335 -304 427 -417 202 -251 378 -617 458 -956 173
-726 296 -1603 340 -2419 16 -296 18 -1087 5 -1370 -11 -216 -12 -220 -36
-243 -14 -13 -29 -35 -35 -49 -5 -13 -26 -175 -46 -360 -20 -185 -39 -331 -40
-326 -2 6 7 123 21 259 54 530 59 638 60 1334 1 672 -3 778 -45 1245 -77 866
-251 1826 -405 2242 -102 276 -292 562 -539 809 -120 120 -221 201 -367 292
-338 212 -560 288 -1213 416 -1445 282 -2953 330 -4420 140 -435 -56 -1058
-169 -1350 -244 -377 -97 -683 -248 -945 -465 -102 -85 -302 -292 -377 -390
-255 -336 -373 -633 -497 -1255 -166 -831 -249 -1559 -266 -2330 -26 -1195 47
-2072 261 -3145 103 -516 151 -676 279 -922 84 -162 152 -268 257 -398 198
-247 411 -425 701 -589 267 -151 568 -237 1282 -366 490 -88 976 -147 1580
-191 233 -17 1170 -23 1460 -10 729 34 1424 118 2115 256 604 121 860 214
1177 427 405 271 735 696 892 1147 80 228 193 774 284 1366 5 33 10 49 11 37
0 -13 -19 -155 -44 -315 -61 -400 -61 -406 -39 -452 18 -38 17 -41 -5 -149
-72 -358 -131 -546 -233 -751 -120 -241 -215 -383 -377 -562 -304 -338 -693
-585 -1107 -702 -452 -128 -1312 -275 -1969 -335 -446 -42 -780 -56 -1308 -56
-1008 0 -1822 80 -2791 276 -431 87 -570 126 -766 212 -525 231 -925 604
-1186 1106 -119 230 -174 392 -244 719 l-43 199 18 52 c20 59 22 39 -45 476
-39 260 -83 604 -135 1048 -28 239 -33 263 -70 302 -23 24 -24 32 -34 297 -19
455 -7 1275 23 1623 59 684 130 1192 247 1770 95 467 154 656 285 908 240 463
609 826 1069 1052 251 123 425 176 885 269 740 149 1520 244 2210 267 102 4
187 9 190 12 8 8 944 -7 1125 -18z m155 -304 c926 -64 2076 -258 2475 -416
336 -133 648 -365 871 -645 259 -327 368 -593 489 -1197 256 -1281 331 -2532
229 -3818 -41 -526 -124 -1103 -235 -1647 -85 -417 -130 -566 -230 -770 -240
-489 -682 -885 -1184 -1062 -306 -108 -1124 -262 -1785 -335 -570 -63 -893
-80 -1525 -80 -1001 0 -1795 79 -2760 274 -494 100 -693 171 -975 346 -315
194 -591 503 -769 860 -103 207 -143 344 -235 805 -210 1050 -300 2083 -268
3077 17 525 43 856 102 1330 53 415 163 1037 242 1361 82 338 227 633 433 880
150 180 266 286 443 403 352 232 632 321 1432 458 602 102 1098 157 1710 190
256 13 1275 4 1540 -14z m4227 -6678 c-2 -13 -4 -5 -4 17 -1 22 1 32 4 23 2
-10 2 -28 0 -40z m-10 -80 c-2 -13 -4 -5 -4 17 -1 22 1 32 4 23 2 -10 2 -28 0
-40z m-10 -75 c-3 -10 -5 -2 -5 17 0 19 2 27 5 18 2 -10 2 -26 0 -35z m-10
-70 c-3 -10 -5 -2 -5 17 0 19 2 27 5 18 2 -10 2 -26 0 -35z"/>
<path d="M5100 10274 c-222 -14 -628 -83 -875 -149 -679 -184 -1261 -479
-1820 -923 -137 -109 -543 -510 -660 -652 -934 -1131 -1308 -2585 -1034 -4010
161 -837 563 -1655 1116 -2272 150 -167 396 -408 493 -483 427 -330 625 -460
950 -625 544 -275 1096 -434 1740 -502 188 -20 735 -16 925 5 928 107 1721
419 2425 956 69 52 160 121 203 154 277 210 647 622 905 1008 174 258 356 605
468 889 376 955 442 1979 194 2972 -288 1153 -1015 2176 -2017 2841 -630 417
-1342 676 -2128 773 -126 15 -722 27 -885 18z m633 -214 c613 -39 1178 -187
1732 -454 348 -168 623 -345 940 -607 159 -131 516 -495 652 -666 612 -765
973 -1739 1000 -2698 7 -258 -10 -646 -37 -820 -137 -890 -486 -1673 -1039
-2330 -96 -114 -397 -421 -493 -503 -103 -87 -438 -331 -593 -430 -147 -94
-569 -307 -750 -377 -370 -146 -750 -241 -1165 -291 -182 -21 -681 -30 -876
-15 -472 37 -940 142 -1339 301 -589 234 -1152 603 -1585 1039 -746 750 -1199
1698 -1317 2754 -20 186 -23 734 -4 932 87 920 448 1787 1045 2510 114 138
439 466 571 577 923 771 2077 1153 3258 1078z"/>
<path d="M2874 6231 c-138 -34 -274 -111 -374 -211 -159 -159 -235 -342 -234
-565 0 -189 48 -329 165 -485 99 -131 213 -211 390 -272 89 -31 101 -32 239
-32 138 0 150 1 239 32 225 78 379 210 475 408 60 121 80 212 80 349 0 145
-18 222 -81 355 -40 83 -58 107 -152 201 -94 96 -116 113 -201 153 -133 64
-227 86 -364 85 -69 0 -138 -7 -182 -18z m258 -201 c102 -12 163 -34 253 -91
84 -53 146 -124 194 -224 46 -94 61 -158 61 -263 0 -159 -54 -288 -169 -403
-82 -83 -173 -136 -270 -159 -88 -21 -270 -8 -356 24 -258 97 -412 389 -354
668 38 182 176 345 352 416 103 41 155 47 289 32z"/>
<path d="M7650 6229 c-147 -38 -272 -110 -377 -216 -116 -118 -189 -263 -219
-436 -65 -369 168 -749 539 -878 77 -27 92 -29 243 -29 185 0 245 13 372 81
161 86 272 199 347 354 96 195 109 407 39 618 -34 103 -102 202 -211 309 -74
72 -106 95 -184 133 -52 24 -130 54 -173 65 -106 27 -272 27 -376 -1z m280
-199 c180 -22 343 -139 428 -308 22 -44 46 -107 52 -138 18 -84 8 -245 -18
-318 -61 -167 -196 -305 -357 -362 -74 -26 -274 -31 -351 -9 -156 45 -290 159
-365 310 l-44 88 0 166 0 166 38 78 c83 170 253 299 432 327 73 11 92 11 185
0z"/>
<path d="M5326 3639 c-145 -24 -251 -82 -371 -203 -99 -101 -144 -168 -182
-277 -23 -67 -24 -81 -21 -238 3 -159 4 -169 34 -237 136 -315 428 -485 760
-444 262 33 488 219 580 477 21 60 24 85 24 221 0 137 -3 160 -25 224 -118
336 -451 536 -799 477z m339 -258 c203 -100 317 -323 274 -533 -30 -147 -140
-288 -278 -356 -68 -34 -82 -37 -179 -40 -127 -5 -206 13 -291 68 -84 54 -137
114 -182 205 -34 68 -41 93 -46 167 -11 164 32 285 143 396 45 44 84 73 136
97 90 41 107 44 237 40 98 -3 108 -5 186 -44z"/>
</g>
</svg>
