<?xml version="1.0" standalone="no"?>
<!DOCTYPE svg PUBLIC "-//W3C//DTD SVG 20010904//EN"
 "http://www.w3.org/TR/2001/REC-SVG-20010904/DTD/svg10.dtd">
<svg version="1.0" xmlns="http://www.w3.org/2000/svg"
 width="916.000000pt" height="917.000000pt" viewBox="0 0 916.000000 917.000000"
 preserveAspectRatio="xMidYMid meet">

<g transform="translate(0.000000,917.000000) scale(0.100000,-0.100000)"
fill="#000000" stroke="none">
<path d="M665 9137 c-301 -124 -526 -357 -641 -665 l-24 -62 0 -3820 0 -3820
24 -62 c122 -326 379 -578 700 -688 59 -20 74 -20 3857 -20 l3798 0 73 26
c307 111 545 333 673 631 l35 80 -2 3864 -3 3864 -52 106 c-120 245 -303 423
-560 547 l-98 47 -3850 2 -3850 3 -80 -33z m6105 -116 l1495 -7 103 -36 c152
-53 248 -114 372 -238 123 -123 173 -204 234 -379 l41 -116 0 -3640 0 -3640
-23 -89 c-85 -335 -343 -599 -672 -688 l-85 -23 -3665 0 -3665 0 -70 24 c-331
114 -532 310 -642 626 -23 65 -25 91 -33 355 -11 344 -11 6547 -1 6880 7 229
8 237 40 330 41 122 96 217 179 314 117 134 268 236 422 284 36 11 76 24 90
28 62 20 3262 28 5880 15z"/>
<path d="M2775 7010 c-172 -7 -235 -23 -339 -84 -103 -60 -201 -185 -248 -316
l-23 -65 0 -1940 c0 -1549 3 -1951 13 -1995 22 -96 80 -199 152 -270 70 -70
141 -112 258 -154 l73 -26 1924 0 1924 0 73 26 c215 77 324 185 407 404 l21
55 -1 1855 c0 1020 -4 1905 -8 1965 -10 124 -27 184 -79 269 -79 131 -232 240
-377 267 -68 13 -3490 21 -3770 9z m3475 -199 l286 -6 66 -33 c79 -39 129 -92
172 -181 l31 -66 0 -1935 0 -1935 -22 -55 c-35 -85 -101 -153 -191 -197 l-77
-38 -1765 -3 c-971 -2 -1844 1 -1941 5 -170 8 -178 10 -241 41 -78 38 -139
101 -176 180 l-27 57 0 1945 0 1945 26 55 c39 82 99 144 177 182 l66 33 271 5
c390 8 3008 9 3345 1z"/>
<path d="M4495 5683 c-334 -39 -634 -219 -811 -485 -64 -95 -121 -223 -151
-336 -23 -85 -26 -117 -27 -262 -1 -182 13 -262 74 -418 92 -240 353 -500 594
-593 167 -65 214 -73 416 -73 159 0 196 3 264 22 217 60 463 224 592 395 62
82 157 280 189 391 23 80 25 106 25 270 0 162 -3 191 -25 276 -99 369 -392
668 -761 775 -118 34 -278 50 -379 38z m232 -244 c149 -21 310 -103 441 -224
116 -107 202 -254 243 -412 27 -106 27 -310 0 -416 -43 -164 -127 -304 -257
-426 -62 -58 -102 -84 -197 -131 -65 -33 -144 -64 -174 -70 -70 -15 -323 -15
-388 0 -187 42 -387 176 -501 337 -56 78 -119 212 -139 294 -20 86 -20 322 1
409 8 35 34 105 58 155 118 248 336 422 601 480 75 17 209 18 312 4z"/>
<path d="M1309 1905 c-38 -20 -59 -58 -59 -105 0 -103 91 -159 186 -114 42 20
64 59 64 115 0 35 -6 48 -39 80 -33 34 -45 39 -82 39 -24 -1 -56 -7 -70 -15z"/>
<path d="M1722 1900 c-72 -44 -79 -144 -15 -201 33 -29 41 -31 91 -27 46 4 60
10 83 36 75 84 20 212 -91 212 -19 0 -50 -9 -68 -20z"/>
<path d="M2138 1904 c-80 -43 -76 -179 6 -218 70 -33 142 -11 172 52 39 83
-20 182 -108 182 -24 -1 -55 -7 -70 -16z"/>
<path d="M901 1492 c-37 -20 -71 -73 -71 -110 0 -100 121 -161 206 -105 26 17
54 71 54 105 0 60 -69 128 -130 128 -14 0 -41 -8 -59 -18z"/>
<path d="M1320 1497 c-40 -20 -70 -74 -70 -124 0 -38 6 -51 33 -78 84 -84 217
-29 217 88 0 89 -102 153 -180 114z"/>
<path d="M1733 1494 c-101 -51 -93 -189 12 -229 54 -21 102 -9 140 36 32 39
40 70 26 112 -26 77 -110 116 -178 81z"/>
<path d="M2150 1497 c-40 -20 -70 -74 -70 -124 0 -38 6 -51 33 -78 84 -84 217
-29 217 88 0 89 -102 153 -180 114z"/>
<path d="M2563 1494 c-101 -51 -93 -189 12 -229 54 -21 102 -9 140 36 32 39
40 70 26 112 -26 77 -110 116 -178 81z"/>
<path d="M1309 1075 c-38 -20 -59 -58 -59 -105 0 -103 91 -159 186 -114 42 20
64 59 64 115 0 35 -6 48 -39 80 -33 34 -45 39 -82 39 -24 -1 -56 -7 -70 -15z"/>
<path d="M1722 1070 c-72 -44 -79 -144 -15 -201 33 -29 41 -31 91 -27 46 4 60
10 83 36 15 17 31 48 35 68 19 103 -102 180 -194 124z"/>
<path d="M2139 1075 c-38 -20 -59 -58 -59 -105 0 -103 91 -159 186 -114 42 20
64 59 64 115 0 35 -6 48 -39 80 -33 34 -45 39 -82 39 -24 -1 -56 -7 -70 -15z"/>
</g>
</svg>
