<?xml version="1.0" standalone="no"?>
<!DOCTYPE svg PUBLIC "-//W3C//DTD SVG 20010904//EN"
 "http://www.w3.org/TR/2001/REC-SVG-20010904/DTD/svg10.dtd">
<svg version="1.0" xmlns="http://www.w3.org/2000/svg"
 width="632.000000pt" height="1021.000000pt" viewBox="0 0 632.000000 1021.000000"
 preserveAspectRatio="xMidYMid meet">

<g transform="translate(0.000000,1021.000000) scale(0.100000,-0.100000)"
fill="#000000" stroke="none">
<path d="M825 10200 c-350 -29 -627 -219 -787 -540 l-37 -75 -1 -4469 0 -4470
40 -82 c139 -288 422 -492 724 -524 50 -5 459 -10 917 -10 726 0 828 -2 833
-15 8 -22 1271 -23 1283 -1 7 13 139 15 898 19 1001 4 934 -1 1111 82 123 57
194 108 285 201 88 91 158 195 200 296 l29 71 -2 4447 -3 4447 -48 96 c-130
263 -362 444 -652 510 -89 20 -108 21 -2395 22 -1268 1 -2345 -1 -2395 -5z
m4840 -231 c214 -78 386 -251 466 -469 l29 -81 0 -4307 -1 -4307 -32 -85 c-43
-112 -94 -187 -194 -286 -88 -87 -162 -132 -291 -178 l-73 -26 -2413 0 -2412
0 -72 24 c-125 43 -206 92 -297 182 -96 95 -142 160 -188 271 l-32 78 -3 4315
-2 4315 25 75 c38 114 90 195 190 296 70 71 108 100 175 134 168 87 -98 78
2622 79 l2417 1 86 -31z"/>
<path d="M3104 6071 c-73 -55 -195 -214 -254 -332 -55 -109 -72 -184 -68 -299
3 -80 8 -104 33 -155 40 -84 125 -166 199 -194 256 -95 503 46 549 315 27 156
-46 338 -223 558 -72 89 -131 136 -170 136 -14 0 -44 -13 -66 -29z m125 -276
c27 -36 69 -105 92 -153 37 -73 44 -98 47 -159 5 -85 -19 -148 -72 -188 -74
-57 -199 -52 -261 10 -78 79 -84 203 -16 339 41 82 135 216 151 216 5 0 32
-29 59 -65z"/>
<path d="M2785 5008 c-11 -6 -47 -37 -80 -68 -87 -82 -106 -90 -225 -90 -118
0 -128 4 -231 90 -81 68 -103 76 -168 64 l-46 -9 -3 -335 c-2 -214 1 -351 8
-378 13 -54 44 -97 90 -125 l35 -22 996 0 995 0 41 27 c76 50 78 60 78 423 0
345 -4 381 -51 412 -39 25 -79 10 -148 -55 -88 -82 -122 -96 -226 -96 -109 -1
-178 28 -235 98 -78 96 -126 97 -220 7 -83 -80 -118 -94 -230 -95 -111 -1
-162 20 -232 92 -69 71 -103 85 -148 60z m96 -268 c66 -43 151 -73 235 -85 94
-12 240 27 335 90 l50 34 63 -43 c66 -45 157 -80 237 -91 62 -8 172 11 237 40
l52 24 -2 -187 -3 -187 -50 -7 c-27 -3 -444 -7 -926 -7 l-877 -1 -6 23 c-3 12
-6 100 -6 196 0 161 1 173 18 166 124 -53 203 -67 303 -54 88 11 163 41 224
88 28 22 51 40 52 40 1 1 30 -17 64 -39z"/>
<path d="M1010 1629 c-58 -24 -92 -79 -92 -152 0 -42 4 -54 33 -83 62 -64 149
-69 214 -13 80 71 60 195 -38 240 -46 21 -79 23 -117 8z m88 -111 c36 -36 -11
-93 -57 -69 -39 21 -21 81 24 81 12 0 26 -5 33 -12z"/>
<path d="M1340 1623 c-19 -10 -45 -34 -58 -53 -32 -48 -28 -137 9 -176 73 -79
177 -70 243 19 40 54 17 153 -45 200 -38 28 -106 32 -149 10z m98 -105 c32
-32 -4 -87 -48 -73 -25 8 -37 50 -20 70 15 18 51 20 68 3z"/>
<path d="M1684 1624 c-58 -21 -88 -76 -82 -150 12 -144 182 -183 271 -62 28
37 27 119 0 156 -48 64 -115 84 -189 56z m100 -116 c18 -25 7 -53 -25 -63 -24
-8 -59 19 -59 45 0 41 59 55 84 18z"/>
<path d="M683 1288 c-88 -19 -133 -115 -94 -202 64 -145 281 -97 281 62 0 99
-85 163 -187 140z m77 -113 c19 -22 4 -64 -25 -71 -31 -8 -55 10 -55 40 0 43
53 63 80 31z"/>
<path d="M1017 1285 c-67 -23 -98 -67 -99 -140 -3 -152 197 -200 276 -66 24
41 24 109 1 145 -37 56 -115 83 -178 61z m81 -107 c21 -21 14 -57 -14 -70 -31
-14 -57 -1 -62 31 -7 42 46 69 76 39z"/>
<path d="M1357 1286 c-68 -25 -99 -69 -99 -142 0 -90 70 -151 164 -142 141 14
183 209 58 273 -42 21 -83 25 -123 11z m83 -110 c31 -38 -9 -89 -54 -68 -45
20 -30 82 20 82 12 0 27 -7 34 -14z"/>
<path d="M1706 1290 c-94 -28 -139 -159 -80 -230 35 -41 74 -60 126 -60 85 0
142 62 141 154 -1 59 -23 93 -83 124 -47 24 -59 25 -104 12z m72 -112 c17 -17
15 -53 -3 -68 -38 -31 -96 27 -65 65 15 18 51 20 68 3z"/>
<path d="M2035 1286 c-16 -8 -43 -28 -59 -45 -24 -25 -30 -42 -34 -91 -4 -59
-4 -61 35 -99 82 -82 193 -69 243 29 40 79 14 155 -70 198 -51 25 -73 27 -115
8z m83 -108 c26 -26 7 -78 -28 -78 -9 0 -25 9 -35 20 -37 41 24 97 63 58z"/>
<path d="M1363 949 c-70 -20 -123 -110 -104 -176 21 -74 74 -113 153 -113 82
0 141 61 141 146 0 98 -96 170 -190 143z m75 -111 c7 -7 12 -21 12 -33 0 -12
-5 -26 -12 -33 -7 -7 -21 -12 -33 -12 -12 0 -26 5 -33 12 -7 7 -12 21 -12 33
0 12 5 26 12 33 7 7 21 12 33 12 12 0 26 -5 33 -12z"/>
<path d="M1705 949 c-66 -19 -121 -112 -104 -173 21 -74 79 -120 149 -120 154
0 199 211 60 282 -48 24 -59 25 -105 11z m73 -111 c17 -17 15 -53 -3 -68 -20
-17 -62 -5 -70 20 -14 44 41 80 73 48z"/>
<path d="M977 929 c-82 -61 -79 -198 6 -249 41 -25 111 -26 157 -1 97 52 97
197 -1 255 -40 24 -127 21 -162 -5z m121 -91 c7 -7 12 -21 12 -33 0 -12 -5
-26 -12 -33 -7 -7 -21 -12 -33 -12 -40 0 -61 50 -33 78 7 7 21 12 33 12 12 0
26 -5 33 -12z"/>
</g>
</svg>
